<?xml version="1.0" encoding="UTF-8"?>
<svg id="Logo" xmlns="http://www.w3.org/2000/svg" viewBox="0 0 105 50">
  <defs>
    <style>
      .cls-1 {
        fill: #fff;
        stroke-width: 0px;
      }
    </style>
  </defs>
  <path class="cls-1" d="M12.43,23.76l.45-.51c.42-.47.91-1,1.46-1.59,1.06-1.12,1.93-2,2.61-2.64l-.03-1.92H4.11l-1.04,2.57c.84-.24,1.72-.37,2.6-.37h5.68c-1.85,1.76-3.59,3.63-5.2,5.62-1.37,1.76-2.6,3.64-3.65,5.61h5.37c1.08-2.19,2.43-4.24,4.01-6.11.16-.2.35-.42.56-.65Z"/>
  <g>
    <path class="cls-1" d="M31.91,22.05h-4.17s-.33,1.22-.38,1.43l-1.95,7.56-.47,1.85h4.17s.32-1.22.37-1.43l1.95-7.56.48-1.85Z"/>
    <path class="cls-1" d="M17.42,22.05l-7.28,10.84h2.13l1.61-2.37h5.59l.52,2.37h4.15l-2.25-10.84h-4.47ZM15.87,27.57l2.29-3.43.7,3.43h-2.99Z"/>
  </g>
  <g>
    <path class="cls-1" d="M42.08,27.57h-3.57l.14-.52s.17-.57.54-.57h5.43l.34-1.54h-7.44c-.76,0-1.3.1-1.67.33-.42.24-.83.85-.99,1.46l-.41,1.63c-.03.15-.07.31-.07.47,0,.59.24,1.07.72,1.4.31.23.78.31,1.74.31h2.87l-.11.38s-.19.45-.58.45h-5.34l-.43,1.54h7.03c1.25,0,1.72-.11,2.26-.52.47-.34.72-.76.93-1.58l.33-1.24c.07-.24.13-.62.11-.8-.05-.6-.5-1.2-1.8-1.2Z"/>
    <path class="cls-1" d="M100.43,24.95c-.15,0-.84-.02-1.08-.02h-2.85c-.7,0-.82.15-1.11.76-.23-.62-.55-.76-1.28-.76h-3.93c-.88,0-.94.13-1.31.78l.2-.78h-3.96s-.3,1.24-.35,1.43l-.03.11h14.56c.2-.42.63-.71,1.13-.71.37,0,.7.16.93.41,0,0,0,0,0,0,.03.03.05.06.08.09,0,0,0,0,0,0,.02.03.04.06.06.1,0,0,0,0,0,.01.02.03.03.06.05.1,0,0,0,.01.01.02.01.03.03.06.04.09,0,0,0,.02.01.03,0,.03.02.06.03.09,0,.01,0,.02,0,.03,0,.03.01.06.02.1,0,.01,0,.02,0,.03,0,.04,0,.09,0,.13,0,0,0,0,0,0,0,.04,0,.08,0,.12,0,.02,0,.03,0,.05,0,.02,0,.05-.01.07,0,.02,0,.04-.02.06,0,.02,0,.03-.01.05,0,.02-.02.05-.02.07,0,.01,0,.02-.01.04-.01.03-.02.05-.03.08,0,0,0,.02-.01.02-.01.03-.03.06-.05.08,0,0,0,0,0,.01-.02.03-.04.06-.06.08,0,0,0,0,0,0-.02.03-.04.06-.07.08,0,0,0,0,0,0-.23.26-.57.43-.94.43-.5,0-.93-.29-1.13-.71h-1.75l-.89,3.48-.5,1.85h3.88l1.03-3.91c.83-.27,1.43-1.05,1.43-1.97,0-1.14-.93-2.07-2.07-2.07Z"/>
    <polygon class="cls-1" points="83.06 32.9 87 32.9 88.39 27.57 84.45 27.57 83.06 32.9"/>
    <path class="cls-1" d="M89.62,32.9h3.91s.33-1.24.38-1.43l1.01-3.9h-3.9l-1.39,5.33Z"/>
    <path class="cls-1" d="M78.81,26.48h4.66c-.11-.42-.35-.83-.67-1.11-.39-.34-.72-.44-1.4-.44h-7.66l-.35,1.54h5.42Z"/>
    <path class="cls-1" d="M83.46,27.57h-8.42c-.8,0-1.11.08-1.5.31-.49.31-.76.75-.98,1.58l-.2.76c-.06.26-.11.54-.11.75,0,.55.26,1.07.72,1.45.42.34.93.49,1.69.49h2.31c.8,0,1.4-.77,1.4-.77l-.2.77h3.85l1.35-4.88c.04-.14.07-.3.1-.45ZM78.72,30.78c-.15.54-.2.57-.89.57h-.96c-.59,0-.76-.11-.76-.47,0-.08,0-.1.06-.33l.21-.81c.15-.57.24-.65.89-.65h1.89l-.44,1.69Z"/>
    <path class="cls-1" d="M65.48,27.57h-3.89l-.7,2.68c-.05.21-.08.47-.08.65,0,.54.24,1.09.7,1.48.39.36.99.52,1.8.52h7.38l.4-1.54h-5.39c-.8,0-1.04-.11-1.04-.49,0-.08.03-.31.06-.44l.36-1.33h6.54s.35-1.38.35-1.38c.01-.05.02-.1.03-.15h-6.54Z"/>
    <path class="cls-1" d="M71.43,25.43c-.42-.37-.94-.5-2.1-.5h-4.99c-1.29,0-2.1.5-2.46,1.54h10.17c-.09-.4-.3-.75-.62-1.04Z"/>
    <path class="cls-1" d="M52.65,31.04l-.48,1.85h3.88s.33-1.27.38-1.43l.94-3.66c.02-.08.04-.16.07-.24h-3.9l-.89,3.48Z"/>
    <path class="cls-1" d="M61.24,24.93h-1.6c-1.19,0-1.88,1.35-1.88,1.35l.35-1.35h-3.88l-.39,1.43-.03.11h4.39c.08-.03.16-.04.26-.04l2.34.04.43-1.54Z"/>
    <polygon class="cls-1" points="52.87 26.48 53.26 24.93 49.87 24.93 50.61 22.05 45.98 24.93 45.58 26.48 49.48 26.48 52.87 26.48"/>
    <path class="cls-1" d="M49.5,31.35c-.76,0-1.09-.18-1.09-.6,0-.1,0-.16.03-.24l.76-2.94h-3.91l-.71,2.7c-.05.21-.08.47-.08.65,0,.65.34,1.27.89,1.64.36.23,1.01.34,2.06.34h3.74l.4-1.54h-2.1Z"/>
  </g>
</svg>