<?xml version="1.0" encoding="UTF-8"?> <svg xmlns="http://www.w3.org/2000/svg" xmlns:xlink="http://www.w3.org/1999/xlink" width="206" height="77.122" viewBox="0 0 206 77.122"><defs><clipPath id="clip-path"><rect id="Retângulo_8681" data-name="Retângulo 8681" width="206" height="77.122" fill="#fff"></rect></clipPath></defs><g id="logotipo" transform="translate(0 0)"><g id="Grupo_10613" data-name="Grupo 10613" transform="translate(0 0)" clip-path="url(#clip-path)"><path id="Caminho_21434" data-name="Caminho 21434" d="M119.357,42.62,125.593,18.6a23.866,23.866,0,0,1,1.037-3.256,16.943,16.943,0,0,1,1.5-2.623H109.691L98.775,31.554,97.532,12.719h-17.5a5.428,5.428,0,0,1,.371,1.82,10.764,10.764,0,0,1-.33,2.723l-6.26,24.022a22.715,22.715,0,0,1-1.061,3.277,16.523,16.523,0,0,1-1.487,2.6h7.9a5.514,5.514,0,0,1-.34-1.81,10.368,10.368,0,0,1,.35-2.724L85,20.072l1.774,27.085h9.423l15.721-27.185-5.519,21.3a22.64,22.64,0,0,1-1.05,3.283,15.886,15.886,0,0,1-1.48,2.6h15.5a5.678,5.678,0,0,1-.337-1.81,10.142,10.142,0,0,1,.333-2.723" transform="translate(24.791 4.424)" fill="#fff"></path><path id="Caminho_21435" data-name="Caminho 21435" d="M166.18,21.206a6.528,6.528,0,0,0-4.807-1.767h-9.036a4.747,4.747,0,0,0-2.467.481,4.51,4.51,0,0,0-1.48,1.969,3.813,3.813,0,0,0-1.256-1.96,4.64,4.64,0,0,0-2.473-.493H132.129a6.983,6.983,0,0,0-2.967.453,4.767,4.767,0,0,0-1.75,2l.636-2.453H114.857a5.977,5.977,0,0,1,.326,1.844,11.121,11.121,0,0,1-.319,2.733L111,38.934a23.666,23.666,0,0,1-1.054,3.277,15.835,15.835,0,0,1-1.48,2.607H123.11a6.013,6.013,0,0,1-.321-1.82,10.832,10.832,0,0,1,.326-2.731l3.421-13.2a4.185,4.185,0,0,1,1.039-2.246,4.115,4.115,0,0,1,2.39-.491h3.073a2.443,2.443,0,0,1,1.507.43,1.378,1.378,0,0,1,.553,1.136,14.465,14.465,0,0,1-.4,1.927l-2.84,11.1a24.748,24.748,0,0,1-1.036,3.293,14.45,14.45,0,0,1-1.487,2.609H144a5,5,0,0,1-.387-1.8,11.339,11.339,0,0,1,.333-2.754l3.464-13.382a4.117,4.117,0,0,1,.987-2.05,3.056,3.056,0,0,1,2.006-.507h3.06c1.657,0,2.473.554,2.473,1.67a7.385,7.385,0,0,1-.247,1.6l-2.946,11.319a25.365,25.365,0,0,1-1.039,3.293,14.854,14.854,0,0,1-1.5,2.609H164.85A6.651,6.651,0,0,1,164.564,43a11.1,11.1,0,0,1,.326-2.717l2.847-11.079a13.02,13.02,0,0,0,.53-2.963,6.774,6.774,0,0,0-2.086-5.037" transform="translate(37.732 6.755)" fill="#fff"></path><path id="Caminho_21436" data-name="Caminho 21436" d="M85.516,19.688a6.587,6.587,0,0,0-.64-3.023,6.667,6.667,0,0,0-1.942-2.4,6.367,6.367,0,0,0-2.507-1.2,18.989,18.989,0,0,0-4.023-.34H59.557a15.484,15.484,0,0,0-7.342,1.466A6.572,6.572,0,0,0,49.808,16.4a13.677,13.677,0,0,0-1.576,3.876L43.858,37.228a12.247,12.247,0,0,0-.67,3.3,6.513,6.513,0,0,0,2.367,5.18,5.314,5.314,0,0,0,2.336,1.177,22.416,22.416,0,0,0,4.25.276H69.82a19.238,19.238,0,0,0,4.6-.446A8.225,8.225,0,0,0,77.533,45.2,7.748,7.748,0,0,0,79.4,43.044a13.872,13.872,0,0,0,1.229-3.356l4.444-16.976a12.562,12.562,0,0,0,.453-3.026ZM66.61,41.1a3.432,3.432,0,0,1-2.136.423h-4.99a6.456,6.456,0,0,1-2.05-.22,1.31,1.31,0,0,1-.663-.487,1.294,1.294,0,0,1-.243-.783,10.842,10.842,0,0,1,.353-1.64l4.3-16.726a5.723,5.723,0,0,1,1.24-2.716,3.963,3.963,0,0,1,2.557-.6h3.336l-3,11.919,4.439-.034-2.143,8.277a6.97,6.97,0,0,1-1,2.583" transform="translate(15.023 4.424)" fill="#fff"></path><path id="Caminho_21437" data-name="Caminho 21437" d="M42.63,25.356A3.556,3.556,0,0,1,43.8,23.19a6.617,6.617,0,0,1,3.019-.441h9.163a10.892,10.892,0,0,1,2.4.19,12.443,12.443,0,0,1,2.267.851l.733-6.676H41.8a42.945,42.945,0,0,0-5.083.229,9.115,9.115,0,0,0-2.86,1.034,7.709,7.709,0,0,0-1.357.93q1.985-2.216,4.56-4.963Q42.023,9.083,45.226,6.1L45.14.094H5.093L1.853,8.127a30.466,30.466,0,0,1,8.113-1.17H27.7A181.609,181.609,0,0,0,11.466,24.519,121.771,121.771,0,0,0,.063,42.045H16.852A94.721,94.721,0,0,1,29.374,22.936c.514-.627,1.1-1.31,1.737-2.047a10.621,10.621,0,0,0-1.444,3.3l-4.7,18.136a14.459,14.459,0,0,0-.561,3.13,5.864,5.864,0,0,0,3.56,5.422,6.531,6.531,0,0,0,1.923.518c.607.057,2.224.116,4.847.159H52.542l2.817-6.819a10.541,10.541,0,0,1-5.323,1.186H41.223A10.943,10.943,0,0,1,39,45.771a1.405,1.405,0,0,1-1.166-1.446,7.4,7.4,0,0,1,.3-1.57Z" transform="translate(0.022 0.032)" fill="#fff"></path><path id="Caminho_21439" data-name="Caminho 21439" d="M2.777,46.714a5.083,5.083,0,0,1,3.023.743,2.687,2.687,0,0,1,1,2.31,3.555,3.555,0,0,1-.27,1.426,2.592,2.592,0,0,1-.8,1.041A3.623,3.623,0,0,1,4.4,52.87a7.146,7.146,0,0,1-1.864.217H.8V57.57H0V46.714Zm-.084.677H.8V52.41H2.46a6.669,6.669,0,0,0,1.887-.236,2.317,2.317,0,0,0,1.213-.817A2.577,2.577,0,0,0,5.987,49.8a2.086,2.086,0,0,0-.807-1.826,4.265,4.265,0,0,0-2.487-.58m9.554,1.953a3.1,3.1,0,0,1,1.786.484,2.877,2.877,0,0,1,1.066,1.32,4.886,4.886,0,0,1,.354,1.923v.543H9.387a3.709,3.709,0,0,0,.8,2.553,2.937,2.937,0,0,0,2.3.894,6.656,6.656,0,0,0,1.349-.12,7.353,7.353,0,0,0,1.283-.423v.69a5.812,5.812,0,0,1-1.236.385,7.186,7.186,0,0,1-1.421.127,4.2,4.2,0,0,1-2.143-.507,3.266,3.266,0,0,1-1.3-1.44,5.047,5.047,0,0,1-.433-2.166A5.4,5.4,0,0,1,9,51.431a3.539,3.539,0,0,1,1.237-1.523,3.457,3.457,0,0,1,2.01-.563m-.007.647a2.611,2.611,0,0,0-1.957.77,3.546,3.546,0,0,0-.873,2.213h5.234a4.249,4.249,0,0,0-.264-1.557,2.2,2.2,0,0,0-.8-1.05,2.256,2.256,0,0,0-1.342-.376m12.5,3.533a5.759,5.759,0,0,1-.24,1.71,3.758,3.758,0,0,1-.71,1.32,3.165,3.165,0,0,1-1.177.86,4.381,4.381,0,0,1-3.193.009,3.265,3.265,0,0,1-1.166-.863,3.864,3.864,0,0,1-.72-1.32,5.64,5.64,0,0,1-.247-1.717,5.1,5.1,0,0,1,.45-2.233,3.305,3.305,0,0,1,1.3-1.444,3.928,3.928,0,0,1,2.034-.5,3.6,3.6,0,0,1,2.033.534,3.248,3.248,0,0,1,1.231,1.469,5.429,5.429,0,0,1,.41,2.177m-6.649,0a5,5,0,0,0,.317,1.856,2.675,2.675,0,0,0,.96,1.24,2.838,2.838,0,0,0,1.639.448,2.88,2.88,0,0,0,1.661-.448,2.6,2.6,0,0,0,.96-1.247,5.118,5.118,0,0,0,.31-1.849,5.24,5.24,0,0,0-.294-1.81,2.594,2.594,0,0,0-.93-1.249A2.744,2.744,0,0,0,21.059,50a2.693,2.693,0,0,0-2.22.937,4.016,4.016,0,0,0-.749,2.583m12.692-4.18A3.12,3.12,0,0,1,33.3,50.391a4.637,4.637,0,0,1,.9,3.089,5.659,5.659,0,0,1-.423,2.316,3.192,3.192,0,0,1-1.213,1.434,3.475,3.475,0,0,1-1.88.489,3.722,3.722,0,0,1-1.324-.216,2.712,2.712,0,0,1-.926-.594,2.877,2.877,0,0,1-.573-.833H27.8c.016.283.03.58.04.887s.013.6.013.867v3.313h-.787V49.5h.65l.094,1.611h.043a3.207,3.207,0,0,1,.589-.867,2.693,2.693,0,0,1,.957-.654,3.483,3.483,0,0,1,1.383-.247m-.1.66a2.886,2.886,0,0,0-1.582.4,2.355,2.355,0,0,0-.937,1.156,5.173,5.173,0,0,0-.31,1.856v.127a5.531,5.531,0,0,0,.3,1.967,2.36,2.36,0,0,0,.919,1.167,2.855,2.855,0,0,0,1.53.387,2.47,2.47,0,0,0,2.46-1.65,5.172,5.172,0,0,0,.323-1.944,4.189,4.189,0,0,0-.679-2.587A2.4,2.4,0,0,0,30.682,50m6.6,7.566h-.79V46.018h.79Zm5.976-8.226a3.089,3.089,0,0,1,1.783.484,2.86,2.86,0,0,1,1.066,1.32,4.885,4.885,0,0,1,.357,1.923v.543H40.4a3.7,3.7,0,0,0,.8,2.553,2.939,2.939,0,0,0,2.3.894,6.7,6.7,0,0,0,1.353-.12,7.428,7.428,0,0,0,1.283-.423v.69a5.86,5.86,0,0,1-1.236.385,7.224,7.224,0,0,1-1.423.127,4.182,4.182,0,0,1-2.14-.507,3.248,3.248,0,0,1-1.3-1.44,5.087,5.087,0,0,1-.433-2.166,5.4,5.4,0,0,1,.419-2.177,3.52,3.52,0,0,1,1.237-1.523,3.445,3.445,0,0,1,2.01-.563m-.011.647a2.6,2.6,0,0,0-1.953.77,3.547,3.547,0,0,0-.876,2.213h5.236a4.306,4.306,0,0,0-.264-1.557,2.128,2.128,0,0,0-2.143-1.426m12.576-.633a2.422,2.422,0,0,1,2.76,2.8V57.57h-.6l-.14-1.41H57.8a3.561,3.561,0,0,1-.656.81,2.833,2.833,0,0,1-.95.55,4.058,4.058,0,0,1-1.359.2,3.376,3.376,0,0,1-1.394-.26,2.032,2.032,0,0,1-.89-.756,2.278,2.278,0,0,1-.31-1.21,2,2,0,0,1,1.037-1.826,6.261,6.261,0,0,1,2.976-.713l1.564-.077v-.586a2.483,2.483,0,0,0-.514-1.767A2.008,2.008,0,0,0,55.8,50a4.672,4.672,0,0,0-1.249.163,6.792,6.792,0,0,0-1.213.453l-.251-.623a8.04,8.04,0,0,1,1.29-.454,5.807,5.807,0,0,1,1.453-.179m1.98,4.106-1.466.061a5.554,5.554,0,0,0-2.436.55A1.542,1.542,0,0,0,53.07,55.5a1.439,1.439,0,0,0,.493,1.174,2.172,2.172,0,0,0,1.394.407,2.8,2.8,0,0,0,2.109-.757,2.862,2.862,0,0,0,.74-2.064Zm7.183-4.119a3.056,3.056,0,0,1,2.174.713,2.943,2.943,0,0,1,.756,2.233v5.28h-.774V52.338a2.379,2.379,0,0,0-.573-1.767A2.266,2.266,0,0,0,64.909,50a2.773,2.773,0,0,0-2.116.779,3.317,3.317,0,0,0-.727,2.34V57.57h-.78V49.5h.633l.116,1.471h.047a2.82,2.82,0,0,1,1.577-1.4,3.584,3.584,0,0,1,1.329-.224m8.7,8.376a3.3,3.3,0,0,1-2.63-1.039,4.559,4.559,0,0,1-.9-3.043,4.745,4.745,0,0,1,.95-3.193,3.754,3.754,0,0,1,3.913-.883,2.508,2.508,0,0,1,.9.586,2.534,2.534,0,0,1,.573.83h.063c-.023-.264-.036-.543-.046-.846s-.018-.581-.018-.83V46.018h.78V57.57h-.633l-.1-1.476H76.5a2.905,2.905,0,0,1-.58.815,2.64,2.64,0,0,1-.91.594,3.645,3.645,0,0,1-1.324.216m.084-.652a2.408,2.408,0,0,0,2.109-.884,4.358,4.358,0,0,0,.627-2.539v-.12a4.557,4.557,0,0,0-.627-2.614A2.29,2.29,0,0,0,73.839,50a2.566,2.566,0,0,0-2.14.937,4.326,4.326,0,0,0-.736,2.716,4.018,4.018,0,0,0,.69,2.546,2.543,2.543,0,0,0,2.116.871m12.686.007a3.876,3.876,0,0,0,.673-.054,3.218,3.218,0,0,0,.557-.133v.624a4.139,4.139,0,0,1-.58.143,3.861,3.861,0,0,1-.733.066,2.443,2.443,0,0,1-1.183-.253,1.654,1.654,0,0,1-.713-.779,3.3,3.3,0,0,1-.237-1.337V50.125H82.984v-.448l1.244-.229.27-1.9h.52V49.5h2.62v.624h-2.62v5.183a2.186,2.186,0,0,0,.333,1.32,1.3,1.3,0,0,0,1.1.447m6.216-7.73a3.106,3.106,0,0,1,1.786.484,2.872,2.872,0,0,1,1.063,1.32,4.838,4.838,0,0,1,.356,1.923v.543H89.811a3.689,3.689,0,0,0,.8,2.553,2.929,2.929,0,0,0,2.293.894,6.68,6.68,0,0,0,1.353-.12,7.353,7.353,0,0,0,1.283-.423v.69a5.885,5.885,0,0,1-1.236.385,7.224,7.224,0,0,1-1.423.127,4.182,4.182,0,0,1-2.14-.507,3.247,3.247,0,0,1-1.3-1.44A5.087,5.087,0,0,1,89,53.607a5.4,5.4,0,0,1,.421-2.177,3.546,3.546,0,0,1,1.236-1.523,3.464,3.464,0,0,1,2.011-.563m-.011.647a2.6,2.6,0,0,0-1.953.77,3.523,3.523,0,0,0-.873,2.213h5.234a4.306,4.306,0,0,0-.264-1.557,2.224,2.224,0,0,0-.8-1.05,2.266,2.266,0,0,0-1.347-.376m8.9,7.729a4.214,4.214,0,0,1-2.12-.5,3.248,3.248,0,0,1-1.3-1.433,5.22,5.22,0,0,1-.433-2.213,4.757,4.757,0,0,1,.5-2.274,3.467,3.467,0,0,1,1.413-1.457,4.372,4.372,0,0,1,2.14-.5,5.658,5.658,0,0,1,1.123.1,4.469,4.469,0,0,1,.934.29l-.208.659a4.976,4.976,0,0,0-1.856-.376,3.383,3.383,0,0,0-1.763.437,2.843,2.843,0,0,0-1.1,1.233,4.318,4.318,0,0,0-.379,1.88,4.712,4.712,0,0,0,.322,1.8,2.7,2.7,0,0,0,1,1.233,3.06,3.06,0,0,0,1.724.443,5.643,5.643,0,0,0,1.159-.116,6.231,6.231,0,0,0,1.014-.307v.683a4.656,4.656,0,0,1-.953.29,5.523,5.523,0,0,1-1.22.12m4.94-11.7V49.79c0,.217-.007.421-.018.607s-.016.38-.03.574h.053a2.549,2.549,0,0,1,.6-.824,2.891,2.891,0,0,1,.964-.58,3.831,3.831,0,0,1,1.34-.217,3.631,3.631,0,0,1,1.607.319,2.123,2.123,0,0,1,1,.957,3.578,3.578,0,0,1,.34,1.663v5.28h-.77V52.338a2.39,2.39,0,0,0-.573-1.767A2.279,2.279,0,0,0,109.343,50a3.191,3.191,0,0,0-1.559.349,2.186,2.186,0,0,0-.961,1.041,4.071,4.071,0,0,0-.322,1.729V57.57h-.78V46.018Zm14.955,11.057a3.892,3.892,0,0,0,.674-.054,3.218,3.218,0,0,0,.557-.133v.624a3.958,3.958,0,0,1-.58.143,3.855,3.855,0,0,1-.735.066,2.448,2.448,0,0,1-1.182-.253,1.629,1.629,0,0,1-.71-.779,3.225,3.225,0,0,1-.24-1.337V50.125h-1.254v-.448l1.247-.229.27-1.9h.516V49.5h2.62v.624h-2.62v5.183a2.186,2.186,0,0,0,.334,1.32,1.3,1.3,0,0,0,1.1.447m10.007-3.55a5.893,5.893,0,0,1-.24,1.71,3.72,3.72,0,0,1-.713,1.32,3.167,3.167,0,0,1-1.174.86,4.025,4.025,0,0,1-1.623.306,3.936,3.936,0,0,1-1.57-.3,3.207,3.207,0,0,1-1.166-.863,3.845,3.845,0,0,1-.721-1.32,5.6,5.6,0,0,1-.245-1.717,5.157,5.157,0,0,1,.446-2.233,3.29,3.29,0,0,1,1.3-1.444,3.921,3.921,0,0,1,2.034-.5,3.621,3.621,0,0,1,2.033.534,3.24,3.24,0,0,1,1.227,1.469,5.429,5.429,0,0,1,.414,2.177m-6.65,0a5.028,5.028,0,0,0,.317,1.856,2.643,2.643,0,0,0,.961,1.24,2.82,2.82,0,0,0,1.636.448,2.883,2.883,0,0,0,1.663-.448,2.574,2.574,0,0,0,.956-1.247,5.089,5.089,0,0,0,.31-1.849,5.178,5.178,0,0,0-.292-1.81,2.606,2.606,0,0,0-.927-1.249,2.749,2.749,0,0,0-1.657-.46,2.679,2.679,0,0,0-2.216.937,4.016,4.016,0,0,0-.751,2.583m15.354,3.55a3.9,3.9,0,0,0,.673-.054,3.126,3.126,0,0,0,.554-.133v.624a4.049,4.049,0,0,1-.577.143,3.874,3.874,0,0,1-.737.066,2.465,2.465,0,0,1-1.183-.253,1.646,1.646,0,0,1-.709-.779,3.225,3.225,0,0,1-.24-1.337V50.125h-1.254v-.448l1.247-.229.27-1.9h.516V49.5h2.623v.624h-2.623v5.183a2.2,2.2,0,0,0,.334,1.32,1.306,1.306,0,0,0,1.107.447m6.375-7.717a4.592,4.592,0,0,1,.627.04,3.8,3.8,0,0,1,.55.1l-.127.69a3.873,3.873,0,0,0-.516-.1,4.365,4.365,0,0,0-.563-.036,2.544,2.544,0,0,0-1.066.213,2.24,2.24,0,0,0-.791.617,2.858,2.858,0,0,0-.493.966,4.378,4.378,0,0,0-.17,1.263V57.57h-.79V49.5h.674l.077,1.52H144a2.822,2.822,0,0,1,.54-.837,2.638,2.638,0,0,1,.86-.6,2.83,2.83,0,0,1,1.143-.224m5.759,0a2.424,2.424,0,0,1,2.76,2.8V57.57h-.6l-.14-1.41h-.046a3.635,3.635,0,0,1-.656.81,2.781,2.781,0,0,1-.95.55,4.05,4.05,0,0,1-1.36.2,3.381,3.381,0,0,1-1.394-.26,2.01,2.01,0,0,1-.887-.756,2.254,2.254,0,0,1-.31-1.21,2,2,0,0,1,1.037-1.826,6.245,6.245,0,0,1,2.977-.713l1.559-.077v-.586a2.5,2.5,0,0,0-.509-1.767A2.016,2.016,0,0,0,152.27,50a4.717,4.717,0,0,0-1.254.163,6.909,6.909,0,0,0-1.213.453l-.247-.623a7.859,7.859,0,0,1,1.29-.454,5.768,5.768,0,0,1,1.453-.179m1.98,4.106-1.469.061a5.556,5.556,0,0,0-2.437.55,1.546,1.546,0,0,0-.833,1.426,1.435,1.435,0,0,0,.493,1.174,2.166,2.166,0,0,0,1.392.407,2.792,2.792,0,0,0,2.111-.757,2.869,2.869,0,0,0,.743-2.064Zm7.18-4.119a3.052,3.052,0,0,1,2.173.713,2.943,2.943,0,0,1,.756,2.233v5.28h-.772V52.338a2.374,2.374,0,0,0-.574-1.767A2.262,2.262,0,0,0,161.383,50a2.763,2.763,0,0,0-2.116.779,3.3,3.3,0,0,0-.731,2.34V57.57h-.78V49.5h.633l.117,1.471h.046a2.82,2.82,0,0,1,1.577-1.4,3.6,3.6,0,0,1,1.33-.224m10.906,6.11a2.008,2.008,0,0,1-.377,1.233,2.3,2.3,0,0,1-1.089.772,5.234,5.234,0,0,1-1.77.26,7.4,7.4,0,0,1-1.563-.15,5.5,5.5,0,0,1-1.15-.363v-.744a6.579,6.579,0,0,0,1.283.446,6.114,6.114,0,0,0,1.444.171,3.19,3.19,0,0,0,1.872-.425,1.357,1.357,0,0,0,.57-1.156,1.139,1.139,0,0,0-.283-.8,2.313,2.313,0,0,0-.806-.546,13.188,13.188,0,0,0-1.267-.47c-.516-.166-.973-.333-1.376-.5a2.447,2.447,0,0,1-.934-.66,1.9,1.9,0,0,1,.47-2.643,3.859,3.859,0,0,1,2.18-.543,6.712,6.712,0,0,1,1.407.14,6.851,6.851,0,0,1,1.19.35l-.278.639a5.57,5.57,0,0,0-1.107-.349,5.884,5.884,0,0,0-1.252-.133,3.143,3.143,0,0,0-1.607.346,1.13,1.13,0,0,0-.581,1.027,1.149,1.149,0,0,0,.278.815,2.183,2.183,0,0,0,.8.491q.52.194,1.229.43c.491.163.939.333,1.353.514a2.669,2.669,0,0,1,1,.69,1.689,1.689,0,0,1,.371,1.15m5.25-5.329h-1.98V57.57h-.78V50.125H173.3v-.448l1.56-.193v-.89a3.635,3.635,0,0,1,.264-1.477,1.8,1.8,0,0,1,.813-.883,2.839,2.839,0,0,1,1.383-.3,4.055,4.055,0,0,1,.78.07,4.63,4.63,0,0,1,.65.154l-.181.633a4.1,4.1,0,0,0-.6-.15,3.5,3.5,0,0,0-.643-.061,1.6,1.6,0,0,0-1.29.477,2.361,2.361,0,0,0-.4,1.53V49.5h1.98Zm8.6,3.4a5.672,5.672,0,0,1-.24,1.71,3.694,3.694,0,0,1-.71,1.32,3.118,3.118,0,0,1-1.173.86,4.016,4.016,0,0,1-1.623.306,3.945,3.945,0,0,1-1.57-.3,3.246,3.246,0,0,1-1.167-.863,3.8,3.8,0,0,1-.72-1.32,5.682,5.682,0,0,1-.247-1.717,5.1,5.1,0,0,1,.447-2.233,3.306,3.306,0,0,1,1.3-1.444,3.915,3.915,0,0,1,2.034-.5,3.621,3.621,0,0,1,2.033.534,3.262,3.262,0,0,1,1.229,1.469,5.429,5.429,0,0,1,.407,2.177m-6.646,0a5,5,0,0,0,.317,1.856,2.641,2.641,0,0,0,.96,1.24,2.825,2.825,0,0,0,1.638.448,2.883,2.883,0,0,0,1.663-.448,2.613,2.613,0,0,0,.96-1.247,5.744,5.744,0,0,0,.013-3.659,2.606,2.606,0,0,0-.927-1.249,2.744,2.744,0,0,0-1.652-.46,2.682,2.682,0,0,0-2.22.937,4.016,4.016,0,0,0-.751,2.583m12.313-4.166a4.55,4.55,0,0,1,.627.04,3.8,3.8,0,0,1,.55.1l-.124.69a3.914,3.914,0,0,0-.519-.1,4.333,4.333,0,0,0-.563-.036,2.555,2.555,0,0,0-1.068.213,2.2,2.2,0,0,0-.786.617,2.816,2.816,0,0,0-.5.966,4.378,4.378,0,0,0-.17,1.263V57.57h-.786V49.5h.67l.077,1.52h.046a2.778,2.778,0,0,1,.543-.837,2.641,2.641,0,0,1,.857-.6,2.83,2.83,0,0,1,1.143-.224m11.5-.013a2.653,2.653,0,0,1,1.917.677,2.832,2.832,0,0,1,.7,2.13v5.42h-.764V52.18a2.253,2.253,0,0,0-.532-1.65A1.931,1.931,0,0,0,203.3,50a2.555,2.555,0,0,0-1.88.677,2.872,2.872,0,0,0-.673,2.109v4.78h-.774V52.18a2.626,2.626,0,0,0-.247-1.227,1.555,1.555,0,0,0-.673-.709,2.058,2.058,0,0,0-1.02-.24,2.765,2.765,0,0,0-1.353.313,2.045,2.045,0,0,0-.88.95,3.728,3.728,0,0,0-.31,1.627V57.57h-.779V49.5h.632l.117,1.321h.047a2.868,2.868,0,0,1,.557-.728,2.683,2.683,0,0,1,.856-.543,3.3,3.3,0,0,1,1.213-.206,2.8,2.8,0,0,1,1.53.394,2.028,2.028,0,0,1,.884,1.15h.053a2.5,2.5,0,0,1,1.05-1.134,3.443,3.443,0,0,1,1.733-.41" transform="translate(0 15.979)" fill="#fff"></path></g></g></svg> 