<svg id="element-sobre-nos" xmlns="http://www.w3.org/2000/svg"
                            xmlns:xlink="http://www.w3.org/1999/xlink" width="376.62" height="390.839"
                            viewBox="0 0 376.62 390.839">
                            <defs>
                                <clipPath id="clip-path">
                                    <rect id="Retângulo_9102" data-name="Retângulo 9102" width="376.62" height="390.839"
                                        fill="#818891"></rect>
                                </clipPath>
                            </defs>
                            <g id="element-animate" transform="translate(-1393 -716)" opacity="0.2">
                                <g id="Grupo_11403" data-name="Grupo 11403" transform="translate(1393 716)">
                                    <g id="Grupo_11402" data-name="Grupo 11402" clip-path="url(#clip-path)">
                                        <path id="Caminho_25765" data-name="Caminho 25765"
                                            d="M169.763,315.352A136.422,136.422,0,1,1,294,235.741a135.626,135.626,0,0,1-124.242,79.61M113.735,301.7c67.7,31.006,148,1.156,179.008-66.54A135.04,135.04,0,0,0,47.195,122.7,135.04,135.04,0,0,0,113.735,301.7"
                                            transform="translate(12.993 16.472)" fill="#818891"></path>
                                        <path id="Caminho_25766" data-name="Caminho 25766"
                                            d="M182.687,374.916A181.9,181.9,0,0,1,106.769,358.3C15.043,316.291-25.4,207.487,16.611,115.76A182.97,182.97,0,0,1,259.154,25.6a182.969,182.969,0,0,1,90.159,242.543c-30.738,67.111-97.23,106.771-166.627,106.771m-75.34-17.873c91.032,41.694,199.011,1.556,240.7-89.475A181.582,181.582,0,0,0,119.7,21.75,180.391,180.391,0,0,0,17.873,116.337c-41.694,91.031-1.556,199.01,89.474,240.7"
                                            transform="translate(0 3.449)" fill="#818891"></path>
                                        <path id="Caminho_25767" data-name="Caminho 25767"
                                            d="M175.1,303.178A195.8,195.8,0,0,1,20.072,226.647l1.1-.844a194.241,194.241,0,0,0,181.174,74.055l.2,1.374a194.6,194.6,0,0,1-27.445,1.946"
                                            transform="translate(7.792 87.661)" fill="#818891"></path>
                                        <path id="Caminho_25768" data-name="Caminho 25768"
                                            d="M338.266,163.026A194.038,194.038,0,0,0,93.118,9.014L92.732,7.68a195.426,195.426,0,0,1,246.9,155.113Z"
                                            transform="translate(36 0)" fill="#818891"></path>
                                        <path id="Caminho_25769" data-name="Caminho 25769"
                                            d="M151.174,325.366a1.824,1.824,0,0,1-1.8-1.516,1.878,1.878,0,0,1,.142-1.045,1.79,1.79,0,0,1,1.365-1.029h0a1.808,1.808,0,1,1,.292,3.59m-.087-2.216a.408.408,0,0,0-.308.232.472.472,0,0,0-.031.255.418.418,0,0,0,.823-.146.42.42,0,0,0-.484-.341m10.981.136a1.8,1.8,0,1,1,.973-3.322,1.77,1.77,0,0,1,.783,1.138,1.807,1.807,0,0,1-1.362,2.142,1.837,1.837,0,0,1-.394.042m0-2.217a.452.452,0,0,0-.1.011l-.019,0a.4.4,0,0,0-.276.221.42.42,0,0,0-.025.264.415.415,0,1,0,.812-.172.394.394,0,0,0-.175-.262.4.4,0,0,0-.221-.065m10.748-.562a1.795,1.795,0,0,1-1.642-2.556,1.759,1.759,0,0,1,1.13-.979,1.8,1.8,0,1,1,.512,3.534m0-2.221a.407.407,0,0,0-.121.019l-.019,0a.4.4,0,0,0-.239.218.457.457,0,0,0-.025.3.418.418,0,0,0,.518.272.413.413,0,0,0,.278-.509.417.417,0,0,0-.2-.258.405.405,0,0,0-.192-.049m10.545-1.24a1.791,1.791,0,0,1-.751-.167,1.811,1.811,0,0,1-.95-1.022,1.834,1.834,0,0,1,.051-1.37,1.813,1.813,0,0,1,1.023-.951l.018-.006a1.809,1.809,0,0,1,1.229,3.4,1.776,1.776,0,0,1-.621.112m-.15-2.206a.422.422,0,0,0-.243.551.427.427,0,0,0,.221.226.4.4,0,0,0,.31.014.421.421,0,1,0-.287-.791m10.463-1.939a1.817,1.817,0,0,1-1.659-1.07,1.838,1.838,0,0,1,.006-1.485,1.816,1.816,0,0,1,3.3.019,1.826,1.826,0,0,1-.927,2.388,1.8,1.8,0,0,1-.716.149m0-2.216a.432.432,0,0,0-.169.036h0a.4.4,0,0,0-.217.2.437.437,0,0,0,0,.354.42.42,0,0,0,.761-.354.413.413,0,0,0-.376-.237m10.017-2.575a1.815,1.815,0,0,1-1.648-2.554l-.433-.2,1.24-.651a1.79,1.79,0,0,1,1.385-.118,1.807,1.807,0,0,1,1.17,2.268,1.815,1.815,0,0,1-1.714,1.258m-.1-2.214-.11.053a.355.355,0,0,0-.172.176.392.392,0,0,0,0,.35.427.427,0,0,0,.254.226.415.415,0,0,0,.515-.268.418.418,0,0,0-.025-.319.432.432,0,0,0-.25-.21.387.387,0,0,0-.215-.008m9.8-3.218a1.806,1.806,0,0,1-1.652-2.559,1.805,1.805,0,1,1,2.781,2.153l-.012.028-.2.125a1.792,1.792,0,0,1-.919.253m0-2.221a.409.409,0,0,0-.214.061l-.014.008a.394.394,0,0,0-.16.171.432.432,0,0,0,.024.393.424.424,0,0,0,.522.169l.057-.036a.418.418,0,0,0-.118-.755.455.455,0,0,0-.1-.011m9.325-3.825a1.757,1.757,0,0,1-.329-.031,1.808,1.808,0,0,1-1.319-2.528,1.87,1.87,0,0,1,.6-.725l.01-.007a1.811,1.811,0,0,1,2.511.457,1.768,1.768,0,0,1,.293,1.341,1.789,1.789,0,0,1-.751,1.169,1.762,1.762,0,0,1-1.019.323m-.239-2.152a.48.48,0,0,0-.147.171.421.421,0,0,0,.033.4.441.441,0,0,0,.275.182.378.378,0,0,0,.3-.068.415.415,0,0,0,.179-.273.4.4,0,0,0-.067-.305.42.42,0,0,0-.268-.172.407.407,0,0,0-.308.062m9.146-4.494a1.8,1.8,0,0,1-1.641-2.552,1.819,1.819,0,0,1,.512-.654l.007,0a1.806,1.806,0,0,1,2.26,2.817l-.325.267-.075-.032a1.785,1.785,0,0,1-.739.158m-.257-2.124a.456.456,0,0,0-.122.151.409.409,0,0,0,.049.421.413.413,0,0,0,.282.162.46.46,0,0,0,.307-.089l.061-.047a.418.418,0,0,0-.576-.6m8.719-5.078-.1,0a1.808,1.808,0,0,1-1.541-2.554,1.91,1.91,0,0,1,.408-.566l.018-.017a1.851,1.851,0,0,1,1.319-.468,1.773,1.773,0,0,1,1.233.591,1.8,1.8,0,0,1,.462,1.316,1.762,1.762,0,0,1-.591,1.233,1.807,1.807,0,0,1-1.212.468m-.271-2.117a.465.465,0,0,0-.1.138.412.412,0,0,0,.071.451.4.4,0,0,0,.28.139.426.426,0,0,0,.31-.112.4.4,0,0,0,.132-.275.432.432,0,0,0-.111-.312.392.392,0,0,0-.275-.132.433.433,0,0,0-.3.1m8.252-5.632a1.805,1.805,0,0,1-1.249-.5,1.83,1.83,0,0,1-.387-2.06,1.783,1.783,0,0,1,.346-.5,1.807,1.807,0,0,1,2.6,2.51,1.835,1.835,0,0,1-1.309.547m0-2.217a.4.4,0,0,0-.292.124l-.007.008a.35.35,0,0,0-.076.105.431.431,0,0,0,.094.489.419.419,0,0,0,.7-.318.4.4,0,0,0-.131-.289.423.423,0,0,0-.293-.119M255.5,266.8a1.776,1.776,0,0,1-1.159-.426,1.831,1.831,0,0,1-.469-2.134,1.643,1.643,0,0,1,.278-.426,1.8,1.8,0,1,1,1.515,2.979c-.054,0-.11.007-.164.007m.012-2.223h-.032a.419.419,0,0,0-.285.146l-.022.025a.272.272,0,0,0-.039.067.43.43,0,0,0,.112.507.415.415,0,0,0,.572-.056.417.417,0,0,0,.1-.308.414.414,0,0,0-.41-.382M262.4,258.1a1.8,1.8,0,0,1-1.062-.346,1.818,1.818,0,0,1-.576-2.21,2.168,2.168,0,0,1,.169-.3l.026-.036a1.823,1.823,0,0,1,2.518-.368,1.771,1.771,0,0,1,.712,1.165A1.811,1.811,0,0,1,262.4,258.1m-.326-2.063a.866.866,0,0,0-.05.086.421.421,0,0,0,.136.511.415.415,0,0,0,.579-.093.432.432,0,0,0,.078-.317.391.391,0,0,0-.158-.258.427.427,0,0,0-.584.071m6.634-7.072a1.79,1.79,0,0,1-.972-.289,1.809,1.809,0,0,1-.665-2.268l.124-.225a1.8,1.8,0,0,1,1.142-.789,1.775,1.775,0,0,1,1.351.247,1.806,1.806,0,0,1-.59,3.282,1.864,1.864,0,0,1-.39.042m-.336-2.046-.029.053a.415.415,0,1,0,.59-.165.4.4,0,0,0-.305-.054.425.425,0,0,0-.255.167m6.048-7.48a1.774,1.774,0,0,1-.877-.233,1.809,1.809,0,0,1-.766-2.322l.117-.2a1.766,1.766,0,0,1,1.031-.782,1.8,1.8,0,1,1,.984,3.471,1.849,1.849,0,0,1-.489.067m-.4-1.937a.42.42,0,0,0,.2.493.392.392,0,0,0,.307.04.417.417,0,0,0,.094-.764.405.405,0,0,0-.318-.036.4.4,0,0,0-.244.2Zm5.485-7.938a1.813,1.813,0,0,1-1.651-2.55l.015-.032a1.806,1.806,0,0,1,2.407-.844,1.763,1.763,0,0,1,.919,1.008,1.784,1.784,0,0,1-.071,1.392,1.758,1.758,0,0,1-1,.918,1.825,1.825,0,0,1-.616.108m-.383-1.984-.015.032a.407.407,0,0,0,.21.516.427.427,0,0,0,.332.021.39.39,0,0,0,.221-.2.422.422,0,0,0,.022-.332.39.39,0,0,0-.2-.222.426.426,0,0,0-.566.185m4.814-8.195a1.754,1.754,0,0,1-.651-.124,1.786,1.786,0,0,1-.993-.965,1.81,1.81,0,0,1-.021-1.379,1.833,1.833,0,0,1,2.345-1.013l.012.006a1.8,1.8,0,0,1-.693,3.475m.014-2.218a.414.414,0,0,0-.378.243.426.426,0,0,0,0,.34.4.4,0,0,0,.223.221.431.431,0,0,0,.548-.24.418.418,0,0,0-.392-.564m3.766-8.218a1.77,1.77,0,0,1-1.6-.99,1.785,1.785,0,0,1-.1-1.372l.078-.2a1.8,1.8,0,0,1,2.2-.951h0a1.8,1.8,0,0,1,1.158,2.267,1.832,1.832,0,0,1-1.738,1.248m.014-2.217a.413.413,0,0,0-.376.239.453.453,0,0,0,.006.365.411.411,0,0,0,.239.208.427.427,0,0,0,.534-.268.422.422,0,0,0-.269-.523.446.446,0,0,0-.133-.021m3.111-8.443a1.809,1.809,0,0,1-.454-.057,1.8,1.8,0,0,1-1.3-2.185,1.923,1.923,0,0,1,.105-.312,1.809,1.809,0,1,1,1.651,2.554m-.024-2.216a.4.4,0,0,0-.365.24.432.432,0,0,0,.275.573.419.419,0,0,0,.326-.046.4.4,0,0,0,.186-.247.408.408,0,0,0-.047-.314.4.4,0,0,0-.25-.187l-.014,0a.445.445,0,0,0-.111-.015m2.414-8.621a1.772,1.772,0,0,1-.318-.029,1.808,1.808,0,0,1-1.444-2.113,1.868,1.868,0,0,1,.132-.414,1.794,1.794,0,0,1,1.97-1.019,1.76,1.76,0,0,1,1.142.729,1.8,1.8,0,0,1-1.483,2.846m0-2.218a.41.41,0,0,0-.372.243c-.075.325.072.537.305.582a.418.418,0,0,0,.48-.332.436.436,0,0,0-.072-.323.383.383,0,0,0-.247-.16l-.017,0a.506.506,0,0,0-.078-.007m1.695-8.756a1.608,1.608,0,0,1-.215-.012,1.814,1.814,0,0,1-1.58-2.006,1.9,1.9,0,0,1,.158-.534,1.81,1.81,0,0,1,1.846-1.048h.006a1.806,1.806,0,0,1-.215,3.6m.011-2.224a.429.429,0,0,0-.387.251c-.065.344.1.554.325.582a.418.418,0,0,0,.466-.365.412.412,0,0,0-.36-.465l-.044,0m.966-8.839c-.033,0-.068,0-.1,0a1.824,1.824,0,0,1-1.709-1.885,2.134,2.134,0,0,1,.164-.668,1.851,1.851,0,0,1,1.746-1.047,1.8,1.8,0,0,1-.1,3.6m-.007-2.22a.419.419,0,0,0-.378.24,1.107,1.107,0,0,0-.044.207.43.43,0,0,0,.405.383.442.442,0,0,0,.443-.4.423.423,0,0,0-.4-.43H295.9m.239-8.867a1.8,1.8,0,0,1-1.782-1.792,1.677,1.677,0,0,1,.157-.761,1.786,1.786,0,0,1,1.634-1.055h0a1.8,1.8,0,0,1,.022,3.608Zm.011-2.22h0a.408.408,0,0,0-.375.246.338.338,0,0,0-.032.157.428.428,0,0,0,.125.314.454.454,0,0,0,.29.115.416.416,0,1,0-.008-.832m-.479-8.864a1.809,1.809,0,0,1-1.788-1.663,1.925,1.925,0,0,1,.161-.886,1.806,1.806,0,1,1,1.774,2.543c-.05,0-.1.006-.147.006m.026-2.217h-.042a.415.415,0,0,0-.35.246.508.508,0,0,0-.037.228.411.411,0,0,0,.441.353.425.425,0,0,0,.4-.45.414.414,0,0,0-.409-.378m-1.186-8.814a1.813,1.813,0,0,1-1.122-.383,1.764,1.764,0,0,1-.673-1.183,1.709,1.709,0,0,1,.142-.984,1.8,1.8,0,0,1,1.4-1.044,1.807,1.807,0,1,1,.258,3.594m-.008-2.223a.467.467,0,0,0-.061,0h0a.422.422,0,0,0-.318.244.349.349,0,0,0-.031.2.409.409,0,0,0,.153.293.456.456,0,0,0,.326.089.42.42,0,0,0-.065-.833m-1.906-8.712a1.8,1.8,0,0,1-1.76-1.449,1.821,1.821,0,0,1,.122-1.109,1.792,1.792,0,0,1,1.277-1.016l.011,0a1.8,1.8,0,0,1,2.123,1.41,1.769,1.769,0,0,1-.251,1.342,1.807,1.807,0,0,1-1.158.789,1.9,1.9,0,0,1-.364.036m-.082-2.216a.405.405,0,0,0-.315.5.391.391,0,0,0,.169.255.4.4,0,0,0,.314.064.43.43,0,0,0,.272-.185.393.393,0,0,0,.056-.3.421.421,0,0,0-.5-.336M290,110.489a1.8,1.8,0,0,1-1.635-2.553,1.82,1.82,0,0,1,1.144-.99l.012,0a1.8,1.8,0,0,1,2.221,1.259,1.809,1.809,0,0,1-.174,1.378,1.778,1.778,0,0,1-1.087.841,1.734,1.734,0,0,1-.482.068m-.105-2.21a.426.426,0,0,0-.268.237.411.411,0,0,0,.482.568.41.41,0,0,0,.254-.193.423.423,0,0,0,.04-.323.407.407,0,0,0-.192-.248.424.424,0,0,0-.317-.04"
                                            transform="translate(57.982 41.491)" fill="#818891"></path>
                                        <path id="Caminho_25770" data-name="Caminho 25770"
                                            d="M108.545,326.233l-.886-.407a156.842,156.842,0,0,1-82.992-90.436l-.235-.652L82.3,214.021l.233.652a95.861,95.861,0,0,0,50.719,55.269l.887.407ZM26.21,235.577a155.444,155.444,0,0,0,81.652,88.816l24.44-53.36a97.214,97.214,0,0,1-50.835-55.237ZM271.875,148.2l-.172-.672a97.2,97.2,0,0,0-45.4-59.752l-.6-.347L256.432,34.2l.6.347a159.015,159.015,0,0,1,74.227,97.79l.171.673ZM227.6,86.922a98.619,98.619,0,0,1,45.275,59.591L329.743,132a157.638,157.638,0,0,0-72.8-95.912Z"
                                            transform="translate(9.485 13.275)" fill="#818891"></path>
                                        <path id="Caminho_25771" data-name="Caminho 25771"
                                            d="M27.976,100.716l-7.469-4.378a172.988,172.988,0,0,1,53.732-56.7L79,46.868a164.282,164.282,0,0,0-51.027,53.848"
                                            transform="translate(7.961 15.389)" fill="#818891"></path>
                                        <path id="Caminho_25772" data-name="Caminho 25772"
                                            d="M173.605,332.5a149.327,149.327,0,0,1-62.295-13.685c-75.087-34.392-108.2-123.459-73.8-198.546s123.459-108.194,198.545-73.8A149.868,149.868,0,0,1,173.605,332.5m-61.717-14.947A148.391,148.391,0,0,0,235.474,47.728C161.083,13.655,72.842,46.457,38.769,120.847S37.5,283.481,111.888,317.554"
                                            transform="translate(9.282 12.761)" fill="#818891"></path>
                                        <path id="Caminho_25773" data-name="Caminho 25773"
                                            d="M20.243,228.086a1.669,1.669,0,1,1,2.213-.822,1.668,1.668,0,0,1-2.213.822"
                                            transform="translate(7.481 87.31)" fill="#818891"></path>
                                        <path id="Caminho_25774" data-name="Caminho 25774"
                                            d="M151.216,281.627a1.669,1.669,0,1,1,2.213-.822,1.668,1.668,0,0,1-2.213.822"
                                            transform="translate(58.327 108.096)" fill="#818891"></path>
                                        <path id="Caminho_25775" data-name="Caminho 25775"
                                            d="M269.866,119.335a1.669,1.669,0,1,1,2.213-.822,1.667,1.667,0,0,1-2.213.822"
                                            transform="translate(104.389 45.091)" fill="#818891"></path>
                                        <path id="Caminho_25776" data-name="Caminho 25776"
                                            d="M92.6,8.093a1.669,1.669,0,1,1,2.213-.822,1.667,1.667,0,0,1-2.213.822"
                                            transform="translate(35.571 1.905)" fill="#818891"></path>
                                    </g>
                                </g>
                            </g>
                        </svg>